<svg viewBox="0 0 648.3 377.15" xmlns="http://www.w3.org/2000/svg"><g fill="#fff"><path d="m534.47 205.23h23.72c1.27 3.92 2.27 7.88 3.82 11.62 2.74 6.62 6.65 12.47 12.67 16.64a27.1 27.1 0 0 0 12.78 4.37c15.69 1.69 31.43.91 47.16.95 5.82 0 10.38 3 12.26 8 2.45 6.52-1.65 14.32-8.5 15.54a51.9 51.9 0 0 1 -9.33.63c-11.11 0-22.22 0-33.32-.32-9.73-.29-19.36-1.51-28.33-5.75a47.67 47.67 0 0 1 -13.86-9.91c-9.33-9.54-14.94-21-17.94-33.91-.56-2.42-.83-4.91-1.23-7.37a1.78 1.78 0 0 1 .1-.49z"/><path d="m371.71 205.24c.64 0 1-.08 1.33-.08h21.82c1.06 0 1.39.33 1.62 1.4 2 9.52 6.1 18 13.42 24.61a23.26 23.26 0 0 0 13.1 5.74c5.78.68 11.61 1.12 17.43 1.23 10.6.18 21.21 0 31.81.07a12.56 12.56 0 0 1 10.11 4.49 11.76 11.76 0 0 1 -6.47 19.05 43.21 43.21 0 0 1 -9.32.65c-11.11 0-22.22 0-33.33-.33-9.68-.29-19.24-1.5-28.19-5.68a50 50 0 0 1 -17.16-13.47 68.88 68.88 0 0 1 -14-27.28c-.8-3.36-1.4-6.8-2.17-10.4z"/><path d="m372.39 185.16c1.53-4.78 2.68-9.38 4.45-13.74a75.1 75.1 0 0 1 16.93-25.88 57.17 57.17 0 0 1 26.63-14.61 61.72 61.72 0 0 1 15.79-1.84c12.78.14 25.55.2 38.33.32 5.08.05 10 4.45 11.07 9.41 1.41 6.61-3.33 13.69-10.44 14.26-1 .08-2.1.26-3.15.25q-17.64-.09-35.29-.23c-8.4-.07-16.18 1.9-23 6.94a39.93 39.93 0 0 0 -11.46 14c-1.71 3.26-3 6.74-4.52 10.1-.19.42-.74 1-1.13 1-7.89.04-15.76.02-24.21.02z"/><path d="m535.29 185.16a80.33 80.33 0 0 1 15.71-33.16 56.76 56.76 0 0 1 29-19.65 58.84 58.84 0 0 1 17-2.62q19.92.1 39.85.3c5.3 0 10.1 4.34 11.22 9.57a11.88 11.88 0 0 1 -10.33 14.07c-1.3.12-2.6.28-3.91.28q-17.34-.09-34.69-.23c-8.4-.07-16.19 1.91-23 7a40.5 40.5 0 0 0 -11.4 13.87c-1.66 3.12-2.86 6.47-4.34 9.68a1.75 1.75 0 0 1 -1.25.9c-7.88.01-15.76-.01-23.86-.01z"/><path d="m345.8 185.16c-8.53 0-16.91 0-25.29 0a1.63 1.63 0 0 1 -1.09-.9c-1.42-3.18-2.77-6.39-4.29-9.93-1.36 3.24-2.69 6.15-3.78 9.14a2.27 2.27 0 0 1 -2.57 1.77c-8-.08-16 0-24.16 0 1.21-2.95 2.38-5.78 3.55-8.61 5-12 10-24.05 14.89-36.1 1.58-3.87 3.85-7 7.92-8.51a11.87 11.87 0 0 1 14.8 6.18c2.05 4.16 3.74 8.5 5.55 12.77q7 16.4 13.89 32.8c.19.37.36.83.58 1.39z"/><path d="m328.27 205.16h25.16a1.58 1.58 0 0 1 1.18.77c5.74 13.49 11.49 27 17.13 40.51a12 12 0 0 1 -7.74 16.43 11.65 11.65 0 0 1 -13.63-5.9c-2.11-4.13-3.81-8.47-5.62-12.74q-8-18.87-15.95-37.76c-.17-.36-.3-.73-.53-1.31z"/><path d="m302.25 205.28c-1.06 2.67-2.07 5.26-3.13 7.83-5.76 13.89-11.49 27.89-17.32 41.74-1.94 4.63-5.36 7.48-10.57 8a12.12 12.12 0 0 1 -12.44-9.18c-.67-3.32.12-6.33 1.35-9.32q7.83-19 15.72-38a2 2 0 0 1 1.44-1.11c8.09-.07 16.17-.05 24.25 0a6.24 6.24 0 0 1 .7.04z"/><path d="m497.38 205.23h23.94v1.6c-.1 14.94-.1 29.89-.36 44.83-.09 4.9-2.74 8.55-7.32 10.45a11.28 11.28 0 0 1 -12.55-2.19 11.89 11.89 0 0 1 -4-9.37c0-14.74.17-29.48.28-44.23z"/><path d="m509.3 130.88c6.2-.24 11.95 5.46 11.83 12.15a12.13 12.13 0 0 1 -12.41 11.81 12 12 0 0 1 .58-24z"/><path d="m521.53 185.1h-24.12c0-4-.36-8 1.52-11.7a11.89 11.89 0 0 1 11.55-6.4 11.62 11.62 0 0 1 10.52 9.14 72.26 72.26 0 0 1 .53 8.96z"/><path d="m216.2 364c14.89 4.77 28.18 7.09 29.92 5.07-4.87-.61-9.7-.95-14.42-1.87s-9.21-2.42-13.8-3.67v-.38c2.09-1.06 4.14-2.18 6.27-3.15a11.41 11.41 0 0 1 10 .15c3.8 1.79 7.48 3.82 11.27 5.61a26.07 26.07 0 0 0 13.89 2.7 12.44 12.44 0 0 1 -1 .69c-4.55 2.34-9 4.89-14.14 5.82-6.15 1.12-12.32 1.72-18.43-.13a9.79 9.79 0 0 1 -6.4-5.26c-.91-1.9-2.06-3.67-3.16-5.58z"/><path d="m130.39 235.7 3.05 3.47c1-6.18 3.82-10.43 9.71-12.25.37-.12.72-.84.78-1.32.24-1.95.47-3.89 1.82-5.45.85-1 1.77-1.91 2.73-2.94a14.62 14.62 0 0 0 -1.86-.22 8.85 8.85 0 0 1 -8.42-6.3c-1-2.93-.5-5.84.15-8.73.81-3.63 1.73-7.24 2.58-10.87a3.56 3.56 0 0 0 -.07-1c-.27.29-.67.53-.78.86-.29.9-.46 1.84-.68 2.76-.89 3.81-1.78 7.63-2.67 11.43-3.57.15-3.59 0-3.72-3.59-.17-5.05.77-10 1.59-14.91a12.07 12.07 0 0 1 .41-1.37l1.26-.21c.18-2.52 1.5-4.89.15-7.37a2.69 2.69 0 0 1 .19-1.9c.5-1.4 1.13-2.75 1.7-4.13.16-.36.5-.76.44-1.08-.48-2.26.53-4.11 1.63-5.89a14.73 14.73 0 0 0 2.38-4.83c.52-2.6 2.54-4.36 4.43-6.12a12.39 12.39 0 0 0 1.31-1.57c1.2-1.58 2.32-3.23 3.61-4.73.84-1 2.2-1.56 2.84-2.61a18.58 18.58 0 0 1 6.45-6.17 3.45 3.45 0 0 0 1.09-.95 15.88 15.88 0 0 1 7.83-5.86 3.88 3.88 0 0 0 1.46-.91 14 14 0 0 1 7.24-4 18.38 18.38 0 0 0 2.57-1.07 50 50 0 0 1 4.83-1.91c1.74-.5 3.67-.27 5.25-1.47a4.63 4.63 0 0 1 1.69-.57c3.15-.78 5.2.35 5.74 2.67-1.35 1.83-2.41 3.43-3.65 4.87-.5.58-1.5 1.25-2.09 1.11-1.09-.25-.64-1.33-.27-2 .67-1.24 1.47-2.42 2.21-3.63-2-.37-3.87-.18-5.16 1.36a15.61 15.61 0 0 0 -2.21 4c-.39.91-1.42 2.06-2.12 1.81-1.11-.4-.93-1.3-.64-2.14.38-1.07.82-2.12 1.26-3.23a3 3 0 0 0 -.73 0c-3 .66-5.89 2.82-5.69 6.8.05 1.09-1 2.3-1.85 2.14-1.16-.21-1.28-1.2-1.15-2.12.17-1.15.5-2.28.8-3.56a13.69 13.69 0 0 0 -1.46.41 6 6 0 0 0 -3.93 6.71 1.89 1.89 0 0 1 -1.68 2.16c-1.15.25-1.47-.77-1.57-1.59a16.71 16.71 0 0 1 .15-2.9c-1.07.66-2 1.16-2.84 1.77-2 1.47-2.46 3.68-1.47 6a2.56 2.56 0 0 1 -.57 2.05 1.23 1.23 0 0 1 -2.08 0 26.16 26.16 0 0 1 -1.56-3.06 22.88 22.88 0 0 0 -2.85 3.26c-.9 1.48-1.18 3.37 1.07 4.51 1 .5.63 1.26.17 1.91a2.09 2.09 0 0 1 -3.18.3 17.21 17.21 0 0 1 -2-2.63 5.24 5.24 0 0 0 -2.5 3.24 2.72 2.72 0 0 0 1.33 3.54c1.1.6 1 1.2.28 2a2.12 2.12 0 0 1 -3 .4c-.79-.47-1.51-1.07-2.38-1.69a20.4 20.4 0 0 0 -1.94 3.14 2.77 2.77 0 0 0 2.36 3.82c.43.07 1.09.38 1.14.68a1.62 1.62 0 0 1 -.45 1.43 4.31 4.31 0 0 1 -2.47.72 13.06 13.06 0 0 1 -3.08-1.27 21.15 21.15 0 0 0 -1.08 2.07c-.94 2.36.35 4.21 2.9 4.24.56 0 1.11-.05 1.67 0 1.07.08 1.51.84.77 1.59a4.6 4.6 0 0 1 -2.65 1.36 24.08 24.08 0 0 1 -4.47-.52c-.14.39-.36.94-.54 1.51a2.83 2.83 0 0 0 2.65 3.91c.78 0 1.58-.24 2.37-.21.54 0 1.33.17 1.55.54a1.61 1.61 0 0 1 -.37 1.54 6.3 6.3 0 0 1 -2.53 1.14 22.23 22.23 0 0 1 -3.47 0c-.36 1.39-.66 2.69.33 3.91a4.27 4.27 0 0 0 5.16.86 43.71 43.71 0 0 0 4-2.92c.09.28.21.68.36 1.18h7.89c.37 0 .87-.53 1.06-.93 1.33-2.79 2.46-5.69 3.92-8.41a41 41 0 0 1 11.4-13.88c6.86-5.08 14.69-7.06 23.15-7q17.34.17 34.7.23c1.25 0 2.5-.16 3.75-.27a11.91 11.91 0 0 0 10.36-14.19c-1.08-5.07-6-9.4-11.19-9.46q-15.3-.16-30.61-.29c-1 0-1.54-.09-1.62-1.32a19.28 19.28 0 0 0 -4.4-11.55 4 4 0 0 0 -2.38-1.32 24.25 24.25 0 0 0 -4.49.21c-.93.08-1.52.06-1.78-1.17-.94-4.54-2.44-8.84-5.86-11.65-.24-2.24-.14-4.24-.71-6-1.07-3.35-2.44-6.61-3.83-9.84a17.6 17.6 0 0 1 -1.62-9 11.41 11.41 0 0 0 -.27-2.51c-.65.48-1.3 1-1.93 1.45-.11.09-.15.26-.24.39l-4.51 6.6c-.16 0-.23 0-.24-.06-1.17-2.54-2.32-5.07-3.49-7.61a149.09 149.09 0 0 0 -27.6-40.63 225.46 225.46 0 0 0 -31.41-27.84c-4.1-2.95-8.26-5.83-12.42-8.71a2.2 2.2 0 0 0 -1.49-.35c-.19 0-.46.76-.41 1.13.76 4.93 1.42 9.88 2.41 14.77a58.55 58.55 0 0 0 9.91 23.35c1.48 2 3 4 4.53 6.07-.13.06-.2.11-.22.1-.83-.55-1.67-1.09-2.49-1.66a242.57 242.57 0 0 0 -39.75-22.13 4.91 4.91 0 0 0 -1.5-.14 5.09 5.09 0 0 0 0 1.56c1.32 4.18 2.54 8.4 4.06 12.5 3.07 8.31 7.37 15.93 13.64 22.26 1.28 1.28 2.59 2.52 3.94 3.82-6.92-2.29-13.68-4.63-20.53-6.73a130.24 130.24 0 0 0 -21.06-4.79c5.21 10.53 10.91 20.55 19.93 28.24-3.07-.6-6-1.38-9-1.95q-8.31-1.62-16.66-3c-2.51-.42-5.06-.65-7.6-.92-.35 0-1 .15-1 .36a1.58 1.58 0 0 0 .27 1.16c1.07 1.64 2.13 3.29 3.33 4.84 3.28 4.25 6.46 8.61 10 12.62 2.48 2.79 5.51 5.09 8.34 7.64a9.63 9.63 0 0 1 -1.07 0c-4.58-.49-9.16-1-13.74-1.47-2.15-.21-4.32-.32-6.48-.4-4.84-.19-9.68-.34-14.52-.5a2.28 2.28 0 0 0 -.45 0c-1.18.25-1.42.86-.62 1.74 3.1 3.44 6.15 6.94 9.38 10.26a59.49 59.49 0 0 0 23.34 15.27l6.4 2.22a4.23 4.23 0 0 1 -.69.12c-10.4-.69-20.76.07-31.09 1-5.83.54-11.61 1.56-17.4 2.4-.44.06-1.18.41-1.19.64a2 2 0 0 0 .65 1.36c2.37 1.95 4.81 3.81 7.19 5.74 9.44 7.62 19.94 12.86 32.39 14.47a11.21 11.21 0 0 1 -1 .47c-7 1.84-14 3.49-20.95 5.57-5.82 1.75-11.5 4-17.22 6.06a7.56 7.56 0 0 0 -1.74 1.25 11.24 11.24 0 0 0 1.58 1.37c1.39.78 2.85 1.44 4.26 2.18 6.66 3.48 13.5 6.47 20.9 8 1.71.34 3.43.62 5.34 1-4.81 1.9-9.44 3.59-14 5.54-5.6 2.41-11.11 5-16.63 7.61-.47.22-.77.8-1.14 1.21a5.78 5.78 0 0 0 1.22.91c8.09 3.32 16.13 6.8 25.15 7.95a7.94 7.94 0 0 1 -.74.65c-6.13 4-12.34 7.83-18.36 12-4.18 2.86-8.1 6.09-12.1 9.21a5.15 5.15 0 0 0 -.9 1.36 8.85 8.85 0 0 0 1.45.56c1.33.26 2.67.44 4 .68 7.11 1.29 14.22 2.35 21.51 1.81a60.18 60.18 0 0 0 14.41-2.67c2.39-.78 4.75-1.68 7.23-2.56-.1.22-.12.33-.18.38-5.88 4.89-12 9.54-17.57 14.74-6.31 5.87-12.14 12.25-18.16 18.42a4.15 4.15 0 0 0 -.55 1.16 4 4 0 0 0 1.31.49c5.69-.08 11.39-.13 17.08-.33a44.31 44.31 0 0 0 13.62-2.69c4.36-1.59 8.6-3.53 12.65-5.22a1.37 1.37 0 0 1 -.19.3c-3.1 4.08-6.4 8-9.25 12.28-4.65 6.95-9 14.1-13.45 21.18a5.47 5.47 0 0 0 -.4 1.75 8.58 8.58 0 0 0 1.68 0c1.62-.27 3.23-.61 4.84-.94 6.86-1.39 13.63-3.06 20-6.16 2.09-1 4.14-2.11 6.29-3.2a1.71 1.71 0 0 1 -.06.46c-2.65 4.55-5.44 9-7.92 13.66-2.69 5-5.11 10.18-7.61 15.3a2.5 2.5 0 0 0 0 1.51c0 .12.81.2 1.18.09 4.85-1.54 9.74-3 14.51-4.71 7.91-2.9 15.25-6.95 21-13.1s11.35-12.79 16.76-19.41c6.33-7.74 12.36-15.73 18.61-23.54 2.37-3.02 5.02-5.86 7.6-8.83zm-44-146.64a5 5 0 0 0 0-.53 5 5 0 0 1 -.05.53z"/><path d="m227.13 264.22a43.85 43.85 0 0 0 9.32-.65 11.75 11.75 0 0 0 6.49-19 12.51 12.51 0 0 0 -10.11-4.5c-11.27-.06-22.53 0-33.79 0a82.92 82.92 0 0 1 -16.93-1.5 22.29 22.29 0 0 1 -11.81-6.1c1.69.11 3.37.26 5.06.31.33 0 .68-.36 1-.56-.33-.21-.65-.55-1-.59a5.71 5.71 0 0 1 -4.7-2.85 27 27 0 0 1 -2.14-5c-1.32-4.46-3.83-6.68-8.46-7.31a1.46 1.46 0 0 1 -1-.84c-.85-3-1.66-6-2.36-9.08-.2-.9-.45-1.29-1.42-1.28-4.14.05-8.28 0-12.43 0h-1.85c1.24-5.2 2.42-10.12 3.6-15l-.51-.17a10.08 10.08 0 0 0 -.69 1.63c-1.11 4.79-2.32 9.57-3.23 14.4-.62 3.22 1 7.52 5.06 8.43a35.55 35.55 0 0 0 5.86.45 7.22 7.22 0 0 1 4.53 1.65c-.16.32-.3.62-.58 1.2a25.14 25.14 0 0 0 3-.19 8 8 0 0 1 9.2 5.46c.85 3.13 1.84 6.11 4.16 8.73l-10.07-1.57a4.68 4.68 0 0 0 -.3 1.63 13.73 13.73 0 0 0 .85 4.06c.28.63 1.44.85 2.19 1.28a12.07 12.07 0 0 1 5.72 6.9c1.05 3.27.32 6.49-.17 10.12-2.1-3.53-5.31-5-9-6.56l1.12 2.59c.82 0 1.55-.24 1.69 0a2 2 0 0 1 .23 1.52 27.65 27.65 0 0 1 -5.24 9.85c-.28.35-.83.47-1.25.69l-.36-.45c2.18-3.07 4.54-6 5.37-9.86-.28-.15-.49-.28-.71-.39s-.41-.18-.73-.32a13.8 13.8 0 0 1 -5 7.92 1.24 1.24 0 0 0 -.44.73c-.21 1.68-.36 3.36-.57 5.41a73.38 73.38 0 0 0 7.81-5.17c2.43-2.08 3.33-5.12 3.61-8.32 1.75 2.51-.16 4.69-.75 7 .67.21 1.33.41 2 .63a89.66 89.66 0 0 0 26.51 4.58c10.99.03 22.09.07 33.22.09z"/><path d="m261.63 366.61c-1.62.28-3.24.93-4.83.86a26.52 26.52 0 0 1 -10.37-2.58c-3.73-1.79-7.39-3.7-11.09-5.53a13.42 13.42 0 0 0 -12.77.08c-1.68.87-3.36 1.74-5.07 2.52a3.23 3.23 0 0 1 -2 .4c-1.88-.57-3.71-1.36-5.52-2.05.66-2.93-.16-4.2-2.91-5a1.62 1.62 0 0 1 -.88-1 16.68 16.68 0 0 0 -11-11c-1.95-.65-4-1.85-6.06-.33a1.59 1.59 0 0 1 -2 0c-7.47-3.84-14.18-8.6-19.47-15.27a101.6 101.6 0 0 1 -13.8-23c-.44-1-.79-2.06-1.27-3.33 1.34.46 2.32.81 3.32 1.14s1.95.59 2.92.89c.12-.23.25-.46.37-.7-2.22-1.11-4.43-2.24-5.33-4.76l-.51.19c.13.81.26 1.63.38 2.45l-1.16-.32c-.87 1.59-.87 1.59-.3 3a95.49 95.49 0 0 0 8.48 16.49c4.71 7.37 10.09 14.16 17.48 19.06 2.9 1.93 5.94 3.65 8.92 5.46-1.29 1.77-1.31 1.82-2 1.45a62.55 62.55 0 0 1 -13.93-9.37c-8-7.45-13.82-16.52-18.55-26.29-1.57-3.23-2.84-6.61-4.41-10.3a4.64 4.64 0 0 0 1 .37h1.7a9 9 0 0 0 -1.27-1.06c-1.55-.9-3.13-1.74-4.71-2.59a5 5 0 0 0 -.89-.27c-.18 1.55 1.18 1.65 1.86 2.31s1.43 1.05 1.67 1.75a101.56 101.56 0 0 0 13.06 25.25c3.85 5.44 8 10.56 13.56 14.41 3.63 2.54 7.4 4.88 11.18 7.37-.22 1.44-.53 3.11-.74 4.79-.5 3.93.79 7.15 5 8.09a26.13 26.13 0 0 0 12.91 0 1.36 1.36 0 0 1 1.17.3c1.4 1.76 2.68 2.07 4.67 1.07a1.87 1.87 0 0 1 1.18-.17c3.08.75 5.59 2.24 6.92 5.31.47 1.09 1.16 2.09 1.71 3.16a11.35 11.35 0 0 0 7.4 6.08c6.14 1.67 12.33 1.28 18.49.14 6.32-1.16 11.83-4.32 17.35-7.4a3.35 3.35 0 0 0 1.06-.82 5 5 0 0 0 .48-1.29 6.84 6.84 0 0 0 -1.4.04zm-3.3 2.53c-4.55 2.34-9 4.89-14.14 5.82-6.15 1.12-12.32 1.72-18.43-.13a9.79 9.79 0 0 1 -6.4-5.26c-.91-1.89-2.06-3.66-3.16-5.58 14.89 4.77 28.18 7.09 29.92 5.07-4.87-.61-9.7-.95-14.42-1.87s-9.21-2.42-13.8-3.67c0-.13 0-.25 0-.38 2.09-1.06 4.14-2.18 6.27-3.15a11.41 11.41 0 0 1 10 .15c3.8 1.79 7.48 3.82 11.27 5.61a26.07 26.07 0 0 0 13.89 2.7 12.44 12.44 0 0 1 -1 .69z"/><path d="m158.84 286.16c-.17-1.08-.33-2.08-.45-2.89l-7.24 1c-.43.89-.71 1.48-1 2.07-.37-.61-.74-1.22-1.28-2.13l-1-.21c1.4-1.67 1.47-2.78.39-5.83-2 3.24-4.91 5.37-8 7.33a4.1 4.1 0 0 1 -1.44.29c.27-.44.43-1 .82-1.29a23.14 23.14 0 0 0 7.8-7.41 3.37 3.37 0 0 0 -.84-4.16 3 3 0 0 0 -2.71.2c-.74.51-1 1.67-1.53 2.54-.25.43-.58.84-.87 1.25-.2-.45-.42-.89-.6-1.35a2.13 2.13 0 0 1 0-.57l-.45-.19c-.64 1.4-1.65 2.75-1.84 4.21-.41 3.14-1.13 6.06-3.6 8.67 2.35-.37 4.35-.58 6.29-1s3.81-1.11 5.71-1.68l.19.46-2.27 1.53c2.28 3.63 6.71 5.48 7.46 10.24a5.12 5.12 0 0 0 .62-.74 53.94 53.94 0 0 0 2.19-5.14c.66-2.1 1.41-4.31-.45-6.27 0-.14.09-.28.14-.41z"/><path d="m160.41 263.35c-2 .83-2.3 1.53-1.86 3.7 1 5 5.93 9.7 11.31 10.69-1.47-2.85-1.13-5.74-.39-8.55 1-3.67-1.34-7.32-4.4-8.78a1.5 1.5 0 0 0 -1.06-.2 3.69 3.69 0 0 0 -2 4.4 22.32 22.32 0 0 0 4.38 8.57 19.22 19.22 0 0 1 1.06 1.74l-.64.36a22 22 0 0 1 -6.4-11.93z"/><path d="m157.13 233.3c-.9-1.26-1.76-2.55-2.55-3.89-1.85-3.15-2.44-6.68-2.77-10.37-4.33 5.53.86 15.7 8.86 17.49-1.12-3.07-.65-6.08-.13-9.16a8.14 8.14 0 0 0 -7.48-9.17 18 18 0 0 0 1.41 8.19c1.14 2.52 2.62 4.89 3.95 7.32a1.35 1.35 0 0 1 -1.29-.41z"/><path d="m164.09 287.84a12.48 12.48 0 0 0 5.55-6.14c.85-2.13.45-2.76-1.92-3.1-1.91 5.08-4.47 8.79-6.43 8.83 2-3.19 4.53-5.88 5.24-9.58-1.38-.87-2.75-1.78-4.19-2.58a1.45 1.45 0 0 0 -1.19.2 4.83 4.83 0 0 0 -2 5.18c.57 3.2 1.38 6.35.13 9.73 1.61-.84 3.25-1.63 4.81-2.54z"/><path d="m145.13 290.6c.22-1.08-1-3.3-1.72-3.17-1.75.31-3.46.75-5.3 1.16a29.24 29.24 0 0 0 .27 3.25c.43 2.14 1 4.26 1.46 6.4.07.3-.15.66-.23 1a4.87 4.87 0 0 1 -.83-.65 2.11 2.11 0 0 1 -.3-.84c-.65-3-1.29-6.09-1.95-9.18l-2.15.38c-1 6.22 2.74 10 6.9 14-.4-3.57 1.25-6.13 2.73-8.79a12.77 12.77 0 0 0 1.12-3.56z"/><path d="m155.42 245.22c-1.24-2.09-2.51-4.18-3.55-6.38a32.27 32.27 0 0 1 -1.38-4.51 2 2 0 0 0 -1.69 2.53c.18.92.31 1.86.55 2.77 1.32 5 5.49 7 9.78 9.28a13.36 13.36 0 0 1 -.59-2.92c.06-2.13.38-4.25.48-6.38 0-.85.11-2.13-.38-2.5-2-1.54-4.31-2.81-6.78-4.36-.17 5.17 2.63 9.05 5 13.2a2.07 2.07 0 0 1 -1.44-.73z"/><path d="m159 252.7c.78-2.2.7-2.38-1.61-3.28-.15.37-.26.75-.44 1.09-1.22 2.34-2.43 4.68-3.74 7-.27.48-.9.76-1.37 1.13l-.39-.4c.19-.33.38-.65.55-1 1.31-2.41 2.63-4.81 3.92-7.23.44-.84.22-1.45-.68-1.93-1.14-.6-2.19-1.38-3.27-2.07a5.75 5.75 0 0 0 -2.48 6.21 37.61 37.61 0 0 1 .51 5.78 18.73 18.73 0 0 1 -.55 3.33c1.67-.93 3.21-1.67 4.62-2.6a12 12 0 0 0 4.93-6.03z"/><path d="m143.92 229.85c.37-.24.37-1 .54-1.59a4 4 0 0 0 -1.31-.1 10.84 10.84 0 0 0 -5.54 3.66c-2.61 3.16-2.9 7-3.15 11.1 2.23-2.33 4.86-3.1 7.65-3.63a7.22 7.22 0 0 0 5.19-3.11c-1.71.77-3.34 1.7-5 2.52a3.81 3.81 0 0 1 -1.45.11c.26-.39.43-.93.8-1.14 2.57-1.53 3.05-4 3.24-6.89-3.39 1.8-5.31 4.56-7.29 7.27a9.9 9.9 0 0 1 -1.37 1.29 6.47 6.47 0 0 1 .5-1.91 25 25 0 0 1 7.19-7.58z"/><path d="m157.29 268.33c-2.81 2.48-3.95 6.12-5.95 9.29a2.06 2.06 0 0 1 -.18-1.52 17.67 17.67 0 0 1 1.19-2.76c1-1.7 2-3.36 3-5.06a17 17 0 0 1 -2.6.84 3 3 0 0 0 -2.49 2.37c-1 3.13-.41 6.24 0 9.53 2.5-4 7.31-4.25 10.44-6.67z"/><path d="m143.49 240.12c-1.29.17-1.75 1-2.1 2-1.08 3.27-.62 6.51.06 9.85 2-4 6.74-4.19 9.38-6.76-1.11-2.17-2.1-4.08-3.31-6.44-1.76 3.36-3.43 6.52-5.1 9.7-.81-1-.81-1 3.59-9.3a13.09 13.09 0 0 1 -2.52.95z"/><path d="m145.12 236c1.83-1.05 3.43-1.86 4.93-2.84 1.8-1.19 1.76-1.25.44-3-1.19.73-1.24 2.8-3.53 2.95l1.54-2.28c.81-1.2 1.48-2.29 1-4a11.71 11.71 0 0 1 -.05-4.72 28.55 28.55 0 0 1 1.33-4.38 8.33 8.33 0 0 0 -5.37 9.86 23 23 0 0 1 .32 5.51 15.12 15.12 0 0 1 -.61 2.9z"/><path d="m156.92 265.29c-.14-.06-.2-.11-.23-.1-1.66.8-3.29 1.65-5 2.37a7.23 7.23 0 0 1 -2 .27 7.3 7.3 0 0 1 1.32-1.39 5.79 5.79 0 0 0 2.57-6.31 41 41 0 0 0 -4.17 3.22c-1.39 1.38-2.49 3-3.76 4.51a3.73 3.73 0 0 1 -1.15.62l-.36-.5 2.64-3.72h-1.77a6.49 6.49 0 0 1 1-1.31 5.07 5.07 0 0 0 2.49-4c-3.83 2.41-6.56 8.57-5.67 12.78 3.21-2.25 3.54-2.35 7.92-3.24 2.39-.49 4.58-1.19 6.17-3.2z"/><path d="m180.93 287.91c.3-.37.81-.72.87-1.13.4-2.52.65-5.06 1-7.58a12.89 12.89 0 0 0 -9.35-14.8 26.56 26.56 0 0 0 -3.09-.52c-.07.21-.14.41-.2.62a4 4 0 0 0 1.19.64 11.65 11.65 0 0 1 9.82 7.78c1.27 3.28.44 6.58-.12 10.27-2.27-3.78-6-4.88-9.38-6.5l-.33.31a5.74 5.74 0 0 0 1.19 1.26c1.69 1 3.54 1.69 5.13 2.8a6 6 0 0 1 2.87 5.63 3.61 3.61 0 0 0 .4 1.22z"/><path d="m122.94 288.08c.25-1.24.53-2.6.81-3.95a11.94 11.94 0 0 1 14.53-9.25c.35.09.8-.23 1.2-.36 0-.16-.11-.32-.16-.49-.29 0-.59-.09-.88-.17-5.59-1.55-12.48 1.38-14.6 6.75-1.42 3.63-2 7.6-2.9 11.43-.08.31.29.72.45 1.08.25-.3.64-.56.73-.9a5.76 5.76 0 0 1 4.22-4.29 38.15 38.15 0 0 1 5.74-.93c.85-.1 1.63-.1 1.76-1.33a43.81 43.81 0 0 0 -5.56.55 45.18 45.18 0 0 0 -5.34 1.86z"/><path d="m177.57 274.49c.6 1.26 1.05 2.59 1.65 3.84.15.32.59.5.89.74.07-.38.29-.82.18-1.14a35.49 35.49 0 0 0 -1.35-3.32 21.21 21.21 0 0 0 -8.07-9.21l-.35.33a8.62 8.62 0 0 0 1.21 1.57 21.19 21.19 0 0 1 5.84 7.19z"/><path d="m124.9 284.7c.07.16.13.32.19.48.39-.17.9-.24 1.14-.53a24.17 24.17 0 0 1 11-7.88 6.13 6.13 0 0 0 1.42-1c-4.65.1-11.11 4.57-13.75 8.93z"/><path d="m168.68 250c0-.34.24-.72.13-1a58 58 0 0 0 -2.31-5.64c-1-2-2.24-3.87-4.73-4.5a23.22 23.22 0 0 1 2.45 3c1.3 2.39 2.41 4.9 3.63 7.34.15.36.55.55.83.8z"/><path d="m146.67 255.84-1.22 3.69.38.19 3-5.56c-2.35 1-5 .33-7.1 1.33l.13.62z"/><path d="m134.87 256h5.38l.18-.46-1.24-.69c.36-.68.75-1.41 1.13-2.14l-.52-.26a5.85 5.85 0 0 1 -4.94 2.38c-.28 0-.58.38-.87.59.29.25.58.58.88.58z"/><path d="m168.06 229.54-6.15-4c-.03 1.65 3.98 4.52 6.15 4z"/><path d="m158 278.93-6.44 3.33c.07.22.13.44.19.66 2.12-.21 3.85-1.48 5.65-2.52.33-.17.37-.77.6-1.47z"/><path d="m147.41 295.67c.94.93 1.58 2.53 3.78 2.38l-5-5.36c-.51 1.11-.59 1.19 1.22 2.98z"/><path d="m140.46 240.79-3.84 1.72 2.73 2.39c.4-1.46.73-2.7 1.11-4.11z"/><path d="m142.62 253.61c.3 0 .66.24.88.14 1.42-.71 2.84-1.44 4.19-2.26.33-.2.43-.78.64-1.19l-.26-.17c-1.66.89-3.34 1.76-5 2.68-.21.13-.3.53-.45.8z"/><path d="m149.46 269.92-2.11.51c.31 1.05.57 1.93 1 3.17.39-1.41.71-2.42 1.11-3.68z"/></g></svg>