<svg height="200pt" preserveAspectRatio="xMidYMid meet" viewBox="0 0 760 200" width="760pt" xmlns="http://www.w3.org/2000/svg"><g fill="#fafafa" transform="matrix(.1 0 0 -.1 0 200)"><path d="m1778 1403-3-528-28-65c-61-144-196-277-347-343l-75-32-387-3-388-3v-34-35h366c232 0 382 4 412 11 26 6 90 32 142 56 82 39 107 58 186 137 74 74 98 107 131 176 23 47 46 109 52 138 7 34 11 233 11 552v500h-35-34z"/><path d="m3652 1919c-160-24-320-120-414-247-244-330-127-785 247-957 90-42 154-55 270-55 112 0 179 13 262 50 145 66 244 161 316 305 156 312 23 692-299 849-105 52-259 74-382 55zm287-102c393-138 509-622 217-913-315-314-842-172-953 259-23 92-13 241 22 327 76 185 238 316 435 354 64 12 206-2 279-27z"/><path d="m3730 1465v-185h40 40v185 185h-40-40z"/><path d="m3595 1468c-61-53-85-105-85-183 0-99 51-179 144-227 58-30 174-30 232 0 63 32 97 65 124 118 51 103 18 239-74 306-45 32-52 34-60 12-4-11 9-30 42-59 105-95 95-243-23-322-78-53-214-40-281 25-80 80-83 198-8 282 20 22 44 42 54 45 17 5 18 9 7 26-6 10-15 19-18 19s-28-19-54-42z"/><path d="m4570 1270v-660h35 35l2 593 3 592 47-95c145-296 344-702 434-888 91-188 106-212 127-212 20 0 30 14 66 90 23 50 76 161 118 248 41 86 112 236 158 332s115 243 155 325c40 83 77 161 83 175 9 19 13-111 15-567l2-593h30 30v660 660h-35c-19 0-35-4-35-9 0-4-32-75-71-157-138-287-301-630-352-739-28-60-77-162-108-225l-57-115-75 155c-41 85-156 321-256 524-99 202-202 413-228 467l-46 99h-39-38z"/><path d="m6000 1265v-655h35 35v285 284l503 3 502 3 67 33c75 37 142 104 179 179 20 41 24 63 24 148 0 93-2 105-33 167-38 78-100 138-182 177l-55 26-537 3-538 3zm1100 552c117-60 184-159 183-273-1-110-69-210-181-262l-57-27-487-3-488-3v301 301l488-3 487-3z"/><path d="m120 1225v-655l653 2 652 3 3 22 3 23h-630-631v285 285h615c587 0 615 1 624 18 7 13 6 23-1 30-9 9-175 12-625 12h-613v280 280l28 11c18 7 227 10 629 9l603-1v26 25h-655-655z"/><path d="m2530 1871c-183-35-356-163-443-329-190-361-19-812 356-937 142-47 290-43 421 13 74 31 77 34 67 51-7 11-20 9-72-12-144-57-274-61-409-14-180 64-313 202-374 391-22 66-26 97-26 192 0 98 4 124 29 200 84 248 304 412 557 414 89 0 164-18 251-61 77-37 93-40 93-15 0 17-99 69-170 90-65 20-217 28-280 17z"/><path d="m2582 1749c-205-36-373-202-418-413-17-79-17-125 1-211 52-245 257-415 501-415 90 0 177 18 170 35-2 5-9 9-15 7-150-33-250-24-366 32-257 126-348 436-206 705 52 99 181 196 301 227 63 16 194 15 263-2 37-9 35 11-3 25-46 15-168 21-228 10z"/></g></svg>