<?xml version="1.0" encoding="utf-8"?>
<!-- Generator: Adobe Illustrator 26.0.3, SVG Export Plug-In . SVG Version: 6.00 Build 0)  -->
<svg version="1.1" id="Layer_1" xmlns="http://www.w3.org/2000/svg" xmlns:xlink="http://www.w3.org/1999/xlink" x="0px" y="0px"
	 viewBox="0 0 512 512" style="enable-background:new 0 0 512 512;" xml:space="preserve">
<style type="text/css">
	.st0{fill:none;}
	.st1{display:none;}
	.st2{fill:currentColor}
</style>
<g>
	<g>
		<circle class="st2" cx="121.5" cy="31.9" r="31.9"/>
	</g>
</g>
<g>
	<g>
		<circle class="st2" cx="429.2" cy="322.8" r="33.8"/>
	</g>
</g>
<g>
	<g>
		<path class="st2" d="M511.5,405.8c-0.1-21.2-17.4-38.4-38.6-38.4c-9.1,0-76.6,0-84.8,0c3.6,7.1,5.7,15.1,5.7,23.5c0,9-2.4,18.4-7.5,26.8
			c18.9,0.8,35.5,10.9,45.1,25.9H472v-37.4c0-1.8,1.5-3.4,3.3-3.4s3.4,1.3,3.5,3.2l0,0l0.2,37.7h32.6L511.5,405.8z"/>
	</g>
</g>
<g>
	<g>
		<path class="st2" d="M290.5,391c0-8.6,2.1-16.8,5.9-23.9c-22,0-47.9,0-75.3,0c3.5,6.9,5.4,14.8,5.4,23c0,9.7-2.7,18.9-7.5,26.7
			c15.6,0.1,29.9,6.5,40.3,17.3c10.1-9.8,23.8-15.9,38.8-16C292.9,409.6,290.5,400.1,290.5,391z"/>
	</g>
</g>
<g>
	<g>
		<path class="st2" d="M264.8,288.7c-18.7,0-33.8,15.1-33.8,33.8c0,18.6,15.1,33.8,33.8,33.8c18.5,0,33.8-15,33.8-33.8
			C298.6,303.8,283.5,288.7,264.8,288.7z"/>
	</g>
</g>
<g>
	<g>
		<path class="st2" d="M123.2,390.1c0-8.3,2-16.1,5.4-23c-1.5-0.1,4.7,0-89.5,0c-21.1,0-38.5,17.1-38.6,38.4l-0.2,38.2c14.9,0,17.9,0,32.6,0
			l0.2-38c0-1.9,1.5-3.4,3.4-3.4s3.4,1.5,3.4,3.4v38h45.7c9.9-15.8,26.8-25.6,45.2-26.4C126,409.2,123.2,399.9,123.2,390.1z"/>
	</g>
</g>
<g>
	<g>
		<path class="st2" d="M82.8,288.7c-18.7,0-33.8,15.1-33.8,33.8c0,18.6,15,33.8,33.8,33.8c18.5,0,33.8-15,33.8-33.8
			C116.6,303.8,101.5,288.7,82.8,288.7z"/>
	</g>
</g>
<g>
	<g>
		<path class="st2" d="M422.5,473.8c-0.1-21.2-17.4-38.4-38.6-38.4c-2.2,0-83,0-85.5,0c-21.2,0-39.6,17.2-39.7,38.4l-0.3-0.9
			c-0.1-21.1-17.3-38.4-38.6-38.4c-24.5,0-59.8,0-85.5,0c-21.2,0-39.6,17.2-39.7,38.4L94.4,512H127l0.2-38.9c0-1.6,1.3-2.9,2.9-2.9
			s2.9,1.3,2.9,2.9V512c19.1,0,68.5,0,86.4,0v-38.9c0-1.7,1.4-3.1,3.1-3.1c1.7,0,3.1,1.4,3.2,3.1L226,512c6.7,0,58.2,0,65.1,0
			l0.2-38l0,0c0-1.6,1.3-2.9,2.9-2.9s2.9,1.3,2.9,2.9v38c19.1,0,68.5,0,86.4,0v-38c0-1.7,1.4-3.1,3.1-3.1s3.1,1.4,3.2,3.1l0.2,38
			h32.6L422.5,473.8z"/>
	</g>
</g>
<g>
	<g>
		<circle class="st2" cx="175.9" cy="389.9" r="34.2"/>
	</g>
</g>
<g>
	<g>
		<circle class="st2" cx="342.1" cy="390.8" r="34.2"/>
	</g>
</g>
<rect id="_x3C_Slice_x3E_" x="512" y="10" class="st0" width="88" height="260"/>
<path class="st1" d="M467.3,16.8H221.5c-6.1,0-11.1,5-11.1,11.1v71.9v14.6v72.5v7.9v15.3c0,6.1,5,11.1,11.1,11.1h245.9
	c6.1,0,11.1-5,11.1-11.1V27.9C478.4,21.7,473.4,16.8,467.3,16.8z M456.2,199H232.5v-4.2v-21.7V99.7l0,0V39h223.7V199z"/>
<path d="M169.5,223.7c0,8.5,6.9,15.3,15.4,15.3h0.1c8.5,0,15.4-7,15.3-15.5l-0.6-113.2c-0.1-20-16.5-36.3-36.5-36.3H163h-11.7h-3.4
	l0,0H95.6h-3.3H80.1c-20,0-36.4,16.3-36.5,36.3L43,223.5c0,8.5,6.8,15.4,15.3,15.5h0.1c8.5,0,15.4-6.8,15.4-15.3l0.6-113.2
	c0,0,0,0,0-0.1c0-1.7,1.4-3,3.1-3s3,1.4,3,3.1v160.4c14.1-0.6,27.2,4.5,37,13.4v-62.6h8v71.8c5.6,8.3,8.9,18.2,8.9,29
	c0,9.8-2.7,18.9-7.5,26.7c4.9,0,9.6,0.7,14.1,1.9c6.1-5.3,13.4-9.2,21.4-11.1c0-27,0-49.8,0-69.1c0.1,0,0.2,0,0.3,0V110.5
	c0-1.7,1.4-3,3-3.1c0.3,0,0.6,0,0.8,0.1c1.1,0.5,1.9,1.6,2,2.9"/>
</svg>
