<?xml version="1.0" encoding="utf-8"?>
<!-- Generator: Adobe Illustrator 26.0.3, SVG Export Plug-In . SVG Version: 6.00 Build 0)  -->
<svg version="1.1" id="Layer_1" xmlns="http://www.w3.org/2000/svg" xmlns:xlink="http://www.w3.org/1999/xlink" x="0px" y="0px"
	 viewBox="0 0 447 90" style="enable-background:new 0 0 447 90;" xml:space="preserve">
<style type="text/css">
	.st0{fill:#6B7AE5;}
	.st1{fill:#FFFFFF;}
</style>
<path class="st0" d="M0,5.6C0,2.5,2.4,0,5.4,0h30.2c3,0,5.4,2.5,5.4,5.6v23.7C41,36.9,35.1,43,27.8,43H5.4c-3,0-5.4-2.5-5.4-5.6V5.6
	z"/>
<path class="st0" d="M47,5.6C47,2.5,49.5,0,52.5,0h30.9C86.5,0,89,2.5,89,5.6v31.8c0,3.1-2.5,5.6-5.5,5.6H60.5
	C53.1,43,47,36.9,47,29.3V5.6z"/>
<path class="st0" d="M47,61.4C47,54,53.1,48,60.5,48h22.9c3.1,0,5.5,2.5,5.5,5.5v31c0,3-2.5,5.5-5.5,5.5H52.5
	c-3.1,0-5.5-2.5-5.5-5.5V61.4z"/>
<path class="st0" d="M0,53.5c0-3,2.4-5.5,5.4-5.5h22.4C35.1,48,41,54,41,61.4v23.1c0,3-2.4,5.5-5.4,5.5H5.4c-3,0-5.4-2.5-5.4-5.5
	V53.5z"/>
<path class="st1" d="M171.3,72L160,51.8c5.2-1.8,11.1-6.9,11.1-16.5c0-10.2-7-18.3-19.3-18.3H124v55h14.3V53.5h7.3l9.3,18.5H171.3z
	 M149.6,41.2h-11.3V29.4h11.3c3.8,0,6.9,2.1,6.9,5.9C156.5,39.1,153.4,41.2,149.6,41.2z"/>
<path class="st1" d="M218.6,72V32.2h-12.8v25.7c-1.5,1.9-4,3.9-7.7,3.9c-4.2,0-6.7-1.6-6.7-6.5V32.2h-12.8v28.4
	c0,7.3,4.2,12.5,13.2,12.5c6.8,0,11.4-3,13.9-5.8V72H218.6z"/>
<path class="st1" d="M240.7,58.2V46c1.6-2.1,4.9-3.6,7.7-3.6c5.1,0,8.9,3.7,8.9,9.6c0,6-3.8,9.7-8.9,9.7
	C245.6,61.8,242.3,60.4,240.7,58.2z M240.7,72v-4.6c3.3,3.8,7.4,5.6,11.9,5.6c9.9,0,17.7-7.4,17.7-20.9c0-13-7.7-20.9-17.7-20.9
	c-4.4,0-8.7,1.7-11.9,5.7V17h-12.8v55H240.7z"/>
<path class="st1" d="M296.4,73c6.6,0,10.3-2.5,13.7-6.7l-1.8-1.6c-3.2,4.4-7.1,6-11.7,6c-10.3,0-16.4-8.3-16.4-18.7
	c0-10.4,6.1-18.6,16.4-18.6c4.7,0,8.5,1.6,11.7,5.9l1.8-1.5c-3.4-4.2-7.2-6.7-13.7-6.7c-11.6,0-19,9.4-19,20.9
	C277.4,63.5,284.7,73,296.4,73z"/>
<path class="st1" d="M350.2,72V32.2h-2.5v31.3c-2.8,4-8.7,7.3-14.2,7.3c-6.2,0-10.4-2.3-10.4-10.6v-28h-2.5v28
	c0,9.4,4.6,12.9,12.6,12.9c5.6,0,11.1-3.3,14.6-7.1V72H350.2z"/>
<path class="st1" d="M367,62.9V41.5c2.5-4.2,8.2-8.1,14.5-8.1c9.8,0,15.2,8.2,15.2,18.7c0,10.5-5.4,18.6-15.2,18.6
	C375.3,70.8,369.5,67.1,367,62.9z M367,72v-6.7c2.7,4.1,8.2,7.7,14.5,7.7c10.8,0,18-8.2,18-20.9c0-12.5-7.2-20.9-18-20.9
	c-6,0-11.2,3.1-14.5,7.8V17h-2.5v55H367z"/>
<path class="st1" d="M429.2,73c6.7,0,11.4-2.5,15.5-6.7l-1.5-1.6c-3.7,4-8.3,6-14,6c-10.2,0-16.6-8.2-16.9-17.9H447v-0.8
	c0-11.1-6.3-20.9-18.6-20.9c-10.8,0-18.9,9.3-18.9,20.9C409.5,64.2,417.5,73,429.2,73z M444.3,50.6h-32c0.2-7.8,5.7-17.2,16-17.2
	C439.3,33.4,444.3,43,444.3,50.6z"/>
</svg>
