<svg width="554" height="190" viewBox="0 0 554 190" fill="none" xmlns="http://www.w3.org/2000/svg">
<rect width="554" height="190" fill="#1D1C3E"/>
<path d="M57 51.6111C57 48.5122 59.4205 46 62.4064 46H92.5936C95.5795 46 98 48.5122 98 51.6111V75.2841C98 82.8592 92.0832 89 84.7844 89H62.4064C59.4205 89 57 86.4878 57 83.3889V51.6111Z" fill="#6B7AE5"/>
<path d="M104 51.6111C104 48.5122 106.48 46 109.538 46H140.462C143.52 46 146 48.5122 146 51.6111V83.3889C146 86.4878 143.52 89 140.462 89H117.538C110.061 89 104 82.8592 104 75.2841V51.6111Z" fill="#6B7AE5"/>
<path d="M104 107.397C104 99.998 110.061 94 117.538 94H140.462C143.52 94 146 96.4537 146 99.4806V130.519C146 133.546 143.52 136 140.462 136H109.538C106.48 136 104 133.546 104 130.519V107.397Z" fill="#6B7AE5"/>
<path d="M57 99.4806C57 96.4537 59.4205 94 62.4064 94H84.7844C92.0832 94 98 99.998 98 107.397V130.519C98 133.546 95.5795 136 92.5936 136H62.4064C59.4205 136 57 133.546 57 130.519V99.4806Z" fill="#6B7AE5"/>
<path d="M228.336 118.01L217.022 97.8041C222.263 95.9897 228.086 90.8763 228.086 81.3093C228.086 71.0825 221.098 63 208.786 63H181V118.01H195.309V99.5361H202.63L211.947 118.01H228.336ZM206.623 87.1649H195.309V75.3711H206.623C210.45 75.3711 213.528 77.433 213.528 81.2268C213.528 85.1031 210.45 87.1649 206.623 87.1649Z" fill="white"/>
<path d="M275.599 118.01V78.1753H262.788V103.907C261.29 105.804 258.794 107.784 255.134 107.784C250.975 107.784 248.479 106.134 248.479 101.268V78.1753H235.667V106.546C235.667 113.804 239.827 119 248.895 119C255.716 119 260.292 116.031 262.788 113.227V118.01H275.599Z" fill="white"/>
<path d="M297.711 104.237V92.0309C299.291 89.8866 302.619 88.4021 305.364 88.4021C310.439 88.4021 314.266 92.1134 314.266 98.0515C314.266 104.072 310.439 107.784 305.364 107.784C302.619 107.784 299.291 106.381 297.711 104.237ZM297.711 118.01V113.392C301.038 117.186 305.115 119 309.607 119C319.507 119 327.327 111.577 327.327 98.0515C327.327 85.0206 319.673 77.1856 309.607 77.1856C305.198 77.1856 300.872 78.9175 297.711 82.8763V63H284.899V118.01H297.711Z" fill="white"/>
<path d="M353.351 119C359.923 119 363.666 116.526 367.077 112.32L365.247 110.753C362.002 115.124 358.176 116.773 353.517 116.773C343.201 116.773 337.128 108.443 337.128 98.0515C337.128 87.6598 343.201 79.4124 353.517 79.4124C358.176 79.4124 362.002 80.9794 365.247 85.3505L367.077 83.866C363.666 79.6598 359.923 77.1856 353.351 77.1856C341.704 77.1856 334.383 86.5876 334.383 98.0515C334.383 109.515 341.704 119 353.351 119Z" fill="white"/>
<path d="M407.189 118.01V78.1753H404.693V109.515C401.864 113.474 395.958 116.773 390.467 116.773C384.228 116.773 380.068 114.464 380.068 106.134V78.1753H377.573V106.134C377.573 115.536 382.148 119 390.135 119C395.708 119 401.282 115.701 404.693 111.907V118.01H407.189Z" fill="white"/>
<path d="M424.02 108.856V87.4948C426.516 83.2887 432.256 79.4124 438.495 79.4124C448.312 79.4124 453.719 87.6598 453.719 98.134C453.719 108.608 448.312 116.773 438.495 116.773C432.256 116.773 426.516 113.062 424.02 108.856ZM424.02 118.01V111.33C426.765 115.454 432.173 119 438.495 119C449.31 119 456.464 110.753 456.464 98.134C456.464 85.5979 449.31 77.1856 438.495 77.1856C432.505 77.1856 427.264 80.3196 424.02 85.0206V63H421.524V118.01H424.02Z" fill="white"/>
<path d="M486.197 119C492.936 119 497.594 116.526 501.671 112.32L500.173 110.753C496.43 114.711 491.854 116.773 486.197 116.773C475.965 116.773 469.559 108.608 469.309 98.8763H504V98.0515C504 87 497.678 77.1856 485.365 77.1856C474.55 77.1856 466.481 86.5052 466.481 98.0515C466.481 110.175 474.55 119 486.197 119ZM501.338 96.6495H469.309C469.559 88.8144 474.966 79.4124 485.282 79.4124C496.263 79.4124 501.338 88.9794 501.338 96.6495Z" fill="white"/>
</svg>
