<svg viewBox="0 0 699.99 106.8" xmlns="http://www.w3.org/2000/svg"><g fill="#fff"><path d="m29.56 106.8c-19.44 0-29.56-13.5-29.56-26.86a4.26 4.26 0 0 1 4.32-4.32 4.35 4.35 0 0 1 4.32 4.32c0 8.77 6.48 18.22 20.92 18.22s21.06-9.45 21.06-18.22c0-11.74-8.37-14.71-21.87-18.63-11.88-3.51-26.75-7.69-26.75-24.84 0-12.42 9.45-25 27.54-25s27.68 12.55 27.68 25a4.32 4.32 0 0 1 -8.64 0c0-7.83-5.94-16.47-19-16.47s-18.9 8.64-18.9 16.47c0 10.13 7.7 12.83 20.52 16.61 12.42 3.64 28.08 8.1 28.08 26.86-.02 13.36-10.28 26.86-29.72 26.86z"/><path d="m74.19 106.8a4 4 0 0 1 -4-4v-86.7a3.66 3.66 0 0 1 1.18-2.77 3.48 3.48 0 0 1 2.77-1.18l52.34.13a3.66 3.66 0 0 1 2.77 1.18 3.82 3.82 0 0 1 1.18 2.77 3.87 3.87 0 0 1 -1.18 2.84 3.75 3.75 0 0 1 -2.77 1.12l-48.38-.13v35.46h36.18a3.91 3.91 0 0 1 2.77 6.72 3.65 3.65 0 0 1 -2.77 1.19h-36.13v35.46h48.38a4 4 0 0 1 0 7.91z"/><path d="m182.18 106.8a47.65 47.65 0 1 1 35.9-79.1 4.27 4.27 0 0 1 -.4 6.07 4.18 4.18 0 0 1 -6.08-.4 39.08 39.08 0 1 0 0 51.43 4.42 4.42 0 0 1 6.08-.4 4.29 4.29 0 0 1 .4 6.07 47.57 47.57 0 0 1 -35.9 16.33z"/><path d="m413 106.8a4.26 4.26 0 0 1 -4.32-4.32v-72.62l-31.18 46.3a4.23 4.23 0 0 1 -3.5 1.89 4.3 4.3 0 0 1 -3.65-1.89l-31.05-46.3v72.62a4.32 4.32 0 1 1 -8.63 0v-86.66a4.33 4.33 0 0 1 3.1-4.19 4.09 4.09 0 0 1 4.72 1.76l35.51 52.61 35.37-52.65a4.36 4.36 0 0 1 4.86-1.76 4.51 4.51 0 0 1 3.1 4.19v86.66a4.35 4.35 0 0 1 -4.33 4.36z"/><path d="m461.46 12.21a28 28 0 0 1 19.71 7.58 23.83 23.83 0 0 1 8.11 18.13 23.85 23.85 0 0 1 -7.65 17.67 28.05 28.05 0 0 1 -18.59 8h-1.31a.54.54 0 0 1 -.27.07c.13 0 .07 0-.2-.07h-25.9v39.29a4 4 0 0 1 -4 4 4 4 0 0 1 -3.95-4v-86.71a3.63 3.63 0 0 1 1.19-2.77 3.63 3.63 0 0 1 2.76-1.19zm.54 43.51a20.46 20.46 0 0 0 13.71-5.34 16.42 16.42 0 0 0 -.13-25.05 20.54 20.54 0 0 0 -14.11-5.21h-26.1v35.6z"/><path d="m533.64 12.21a28 28 0 0 1 19.71 7.58 23.83 23.83 0 0 1 8.11 18.13 23.85 23.85 0 0 1 -7.65 17.67 28.05 28.05 0 0 1 -18.59 8h-1.32a.48.48 0 0 1 -.26.07c.13 0 .07 0-.2-.07h-25.9v39.29a4 4 0 0 1 -7.91 0v-86.71a3.66 3.66 0 0 1 1.18-2.77 3.67 3.67 0 0 1 2.77-1.19zm.53 43.51a20.46 20.46 0 0 0 13.71-5.34 16.43 16.43 0 0 0 -.13-25.05 20.54 20.54 0 0 0 -14.11-5.21h-26.1v35.6z"/><path d="m624.52 106.8h-54.4a4.26 4.26 0 0 1 -4.32-4.32c0-17.68 14.72-28.34 27.81-37.79 11.75-8.51 22.82-16.61 22.82-28.22 0-7.83-5.94-16.47-19-16.47-13.77 0-18.9 11.21-18.9 18.09a4.25 4.25 0 1 1 -8.5 0 27.27 27.27 0 0 1 6.61-17.55c3.65-4.18 10.13-9 20.79-9 18.09 0 27.67 12.55 27.67 25 0 16.07-13.5 25.79-26.45 35.1-11.07 8.1-21.47 15.66-23.76 26.59h49.67a4.44 4.44 0 0 1 4.32 4.32 4.35 4.35 0 0 1 -4.36 4.25z"/><path d="m695.67 106.8h-54.4a4.26 4.26 0 0 1 -4.32-4.32c0-17.68 14.71-28.34 27.8-37.79 11.75-8.51 22.82-16.61 22.82-28.22 0-7.83-5.94-16.47-19-16.47-13.76 0-18.89 11.21-18.89 18.09a4.26 4.26 0 1 1 -8.51 0 27.23 27.23 0 0 1 6.62-17.55c3.64-4.18 10.12-9 20.78-9 18.09 0 27.68 12.55 27.68 25 0 16.07-13.5 25.79-26.46 35.1-11.07 8.1-21.46 15.66-23.76 26.59h49.68a4.45 4.45 0 0 1 4.32 4.32 4.35 4.35 0 0 1 -4.36 4.25z"/></g><rect fill="#fcbf30" height="48.69" rx="4.32" width="8.64" x="270.6"/><path d="m294.76 20.17a43.53 43.53 0 1 1 -39.68 0" fill="none" stroke="#fcbf30" stroke-linecap="round" stroke-miterlimit="10" stroke-width="8.19"/></svg>