<svg viewBox="0 0 510.24 457.9" xmlns="http://www.w3.org/2000/svg"><path d="m23.24 205.18c-17.39 71.16-17.39 71.16-23.24 142.39 25.64-19.87 25.64-19.87 73.35-46.11-33.88-55.3-33.88-55.3-50.13-96.29m484-164.31c-64-4.23-64-4.23-143.54 2.72 71.47 49.08 71.47 49.08 144.52 112.21 2.83-69 2.83-69-1-114.91m-411.2 32.73-.25.24c-35 47.77-35 47.77-64.64 109.17 43.33-38.68 43.33-38.68 105.89-77.61-28.27-23-28.27-23-41.24-31.56l.25-.24m121.47-71.39c-61.84 28.17-61.84 28.17-112.95 63.26 14.44 7 14.44 7 44.07 28.54 35.27-56.22 35.27-56.22 68.88-91.81m11.13-2.21c-32.61 36.09-32.61 36.09-67.44 93.35 82.3-32.53 82.3-32.53 169.33-54.93-58.08-27.42-58.08-27.42-101.9-38.42m106.79 48.51c-89.13 23.09-89.13 23.09-173.28 56 53.24 44.1 53.24 44.1 123 105.56 26.62-92.07 26.62-92.07 50.28-161.54m17 2.66h-.27c-21.69 70.11-21.69 70.11-47.06 163.07 102.94-28.32 102.94-28.32 193.6-47.93-74.26-64.59-74.26-64.59-146.5-115.16h.27m153.05 132.05c-91 21-91 21-194.63 50.05 81 75.46 81 75.46 157.27 149.32 22.76-104 22.76-104 37.28-199.31zm-209 64.93-.15.07c-25.33 108-25.33 108-46.24 209.68 101.69-27.21 101.69-27.21 204.49-60.16-77.09-73.64-77.09-73.64-158.25-149.52zm-19.94-4.29-.18.1c-98.65 33.6-98.65 33.6-178.79 65.07 59.93 70.23 59.93 70.23 133.49 143.45 20.05-101.25 20.05-101.25 45.3-208.52zm-126.54-127.38s0 0 0 0c-31.7 82.35-31.7 82.35-55.83 175.21 79.15-32.79 79.15-32.79 176.83-66.85-69.08-62.69-69.08-62.69-121-108.38m-12.6.25c-64 38.94-64 38.94-108.08 77.18 17.47 39.68 17.47 39.68 52.64 94.23 23.79-90.88 23.79-90.88 55.44-171.41z" fill="#009fe0" fill-rule="evenodd"/></svg>