<svg xmlns="http://www.w3.org/2000/svg" viewBox="0 0 510.24 457.9"><defs><style>.cls-1{fill:#009fe0;fill-rule:evenodd;}</style></defs><g id="Layer_2" data-name="Layer 2"><g id="Camada_1" data-name="Camada 1"><path class="cls-1" d="M23.24,205.18h0C5.85,276.34,5.85,276.34,0,347.57c25.64-19.87,25.64-19.87,73.35-46.11-33.88-55.3-33.88-55.3-50.13-96.29h0m484-164.31c-64-4.23-64-4.23-143.54,2.72,71.47,49.08,71.47,49.08,144.52,112.21,2.83-69,2.83-69-1-114.91v0M96,73.61l-.25.24c-35,47.77-35,47.77-64.64,109.17C74.44,144.34,74.44,144.34,137,105.41c-28.27-23-28.27-23-41.24-31.56l.25-.24M217.48,2.22c-61.84,28.17-61.84,28.17-112.95,63.26,14.44,7,14.44,7,44.07,28.54C183.87,37.8,183.87,37.8,217.48,2.21h0M228.61,0h0C196,36.09,196,36.09,161.17,93.35c82.3-32.53,82.3-32.53,169.33-54.93C272.42,11,272.42,11,228.6,0h0M335.39,48.51v0c-89.13,23.09-89.13,23.09-173.28,56,53.24,44.1,53.24,44.1,123,105.56C311.73,118,311.73,118,335.39,48.53v0m17,2.66h-.27c-21.69,70.11-21.69,70.11-47.06,163.07C408,185.94,408,185.94,498.66,166.33c-74.26-64.59-74.26-64.59-146.5-115.16h.27M505.48,183.22c-91,21-91,21-194.63,50.05,81,75.46,81,75.46,157.27,149.32,22.76-104,22.76-104,37.28-199.31l.08-.06m-209,64.93-.15.07c-25.33,108-25.33,108-46.24,209.68,101.69-27.21,101.69-27.21,204.49-60.16-77.09-73.64-77.09-73.64-158.25-149.52l.15-.07m-19.94-4.29-.18.1c-98.65,33.6-98.65,33.6-178.79,65.07,59.93,70.23,59.93,70.23,133.49,143.45,20.05-101.25,20.05-101.25,45.3-208.52l.18-.1M150,116.48s0,0,0,0c-31.7,82.35-31.7,82.35-55.83,175.21C173.32,258.9,173.32,258.9,271,224.84c-69.08-62.69-69.08-62.69-121-108.38,0,0,0,0,0,0m-12.6.25,0,0c-64,38.94-64,38.94-108.08,77.18,17.47,39.68,17.47,39.68,52.64,94.23,23.79-90.88,23.79-90.88,55.44-171.41l0,0"/></g></g></svg>