<svg id="Layer_1" data-name="Layer 1" xmlns="http://www.w3.org/2000/svg" viewBox="0 0 175.75 61.38"><defs><style>.cls-1{fill:#ed1c2e;}.cls-1,.cls-2{fill-rule:evenodd;}.cls-2{fill:#fff;}</style></defs><path class="cls-1" d="M149.94,40.08a7.55,7.55,0,1,1-9,5.8,7.55,7.55,0,0,1,9-5.8Z"/><path class="cls-1" d="M138.14,0c5.5,5.13,12.17,11.79,15.87,19.27A57.26,57.26,0,0,1,175.75,8.15l-3.89,19.39c-8.22-1.91-17.23,1.61-21.8,11.18a19.92,19.92,0,0,0-15.81-19.14L138.14,0Z"/><polygon class="cls-2" points="0 21 1.91 11.79 7.9 11.79 7.66 12.85 2.96 12.85 2.35 15.75 7.16 15.75 6.92 16.8 2.1 16.8 1.24 21 0 21 0 21"/><path class="cls-2" d="M9.7,11.79h1.23L9.76,17.41a4,4,0,0,0-.13,1.05,1.37,1.37,0,0,0,.56,1.18,2.23,2.23,0,0,0,1.48.49,3.25,3.25,0,0,0,1.3-.31,2.26,2.26,0,0,0,.92-1,6.29,6.29,0,0,0,.68-2l1-5.07h1.24l-1.17,5.38a8,8,0,0,1-.75,2.22,3.58,3.58,0,0,1-1.29,1.24,3.32,3.32,0,0,1-1.92.49,5.07,5.07,0,0,1-1.79-.31,2.42,2.42,0,0,1-1.17-1,2.45,2.45,0,0,1-.37-1.36,7.85,7.85,0,0,1,.25-1.66l1-5Z"/><path class="cls-2" d="M16.92,21l1.91-9.21h1.24l1.54,3.46,1.12,2.66c.12.43.3,1,.55,1.67a20.2,20.2,0,0,1,.43-2.41l1.11-5.38H26L24.08,21H22.85l-2.22-5.31a26.35,26.35,0,0,1-1-2.47c-.06.55-.19,1.29-.37,2.16L18.16,21Z"/><path class="cls-2" d="M26,21l1.91-9.21h2.78a9.09,9.09,0,0,1,1.54.13,3.29,3.29,0,0,1,1.3.74,3.5,3.5,0,0,1,.8,1.23,6.51,6.51,0,0,1,.25,1.67,4.89,4.89,0,0,1-.37,2,4.32,4.32,0,0,1-.86,1.6,4.33,4.33,0,0,1-1.12,1.11,4.09,4.09,0,0,1-1.42.56,4.88,4.88,0,0,1-1.48.19ZM27.48,20H28.9a8.12,8.12,0,0,0,1.79-.19,2.72,2.72,0,0,0,.8-.31,8.67,8.67,0,0,0,.81-.8A4.94,4.94,0,0,0,33,17.29a5.59,5.59,0,0,0,.31-1.79,2.87,2.87,0,0,0-.44-1.73,1.76,1.76,0,0,0-1-.8,6.31,6.31,0,0,0-1.36-.13H29L27.48,20Z"/><path class="cls-2" d="M34.33,21l5.19-9.21H41L42.49,21H41.31l-.43-2.66H37.17L35.69,21Zm3.34-3.59h3l-.38-2.34c-.12-.87-.18-1.67-.24-2.29a16.42,16.42,0,0,1-.87,1.92l-1.54,2.71Z"/><path class="cls-2" d="M50.76,17.72l1.24.19a5.62,5.62,0,0,1-1.73,2.41,3.87,3.87,0,0,1-2.47.8,3.31,3.31,0,0,1-2.6-1,4,4,0,0,1-1-3,5.81,5.81,0,0,1,1.49-4.08A4.11,4.11,0,0,1,49,11.67a3.48,3.48,0,0,1,2.35.74,3.09,3.09,0,0,1,1,2.1l-1.12.13a2.43,2.43,0,0,0-.74-1.49A2.23,2.23,0,0,0,49,12.66a3.17,3.17,0,0,0-2.72,1.48,5.29,5.29,0,0,0-.92,3.09,3,3,0,0,0,.74,2.16,2.29,2.29,0,0,0,1.79.74,3,3,0,0,0,1.73-.62,3.72,3.72,0,0,0,1.11-1.79Zm-4.26,4.2.25-1h.86l-.12.56a1.39,1.39,0,0,1,.8.37,1.1,1.1,0,0,1,.31.68.86.86,0,0,1-.37.74,3.34,3.34,0,0,1-1.79.37,5.82,5.82,0,0,1-1-.06l.12-.68h.93a2.32,2.32,0,0,0,.86-.12c.13-.13.19-.19.19-.31a.5.5,0,0,0-.19-.37,1.33,1.33,0,0,0-.8-.19Z"/><path class="cls-2" d="M51.93,21l5.19-9.21h1.42L60.09,21H58.91l-.49-2.66H54.71L53.29,21Zm3.34-3.59h3l-.37-2.34c-.12-.87-.18-1.67-.24-2.29a11,11,0,0,1-.93,1.92l-1.48,2.71Zm.55-6.17a2.29,2.29,0,0,1,.5-1.11,1,1,0,0,1,.74-.25h.43a4.07,4.07,0,0,1,.68.31,2.33,2.33,0,0,0,.68.18.39.39,0,0,0,.25-.06,2.66,2.66,0,0,0,.18-.43H60a1.8,1.8,0,0,1-.43,1,1.13,1.13,0,0,1-.8.31,1.26,1.26,0,0,1-.62-.12,4,4,0,0,0-1.05-.37c-.18,0-.25,0-.37.12a1,1,0,0,0-.18.37Z"/><path class="cls-2" d="M61.81,17.11a5.74,5.74,0,0,1,1.36-4,4.71,4.71,0,0,1,3.46-1.48,3.59,3.59,0,0,1,2.78,1.11,4,4,0,0,1,1.11,3A5.4,5.4,0,0,1,70,18.22a3.89,3.89,0,0,1-1,1.48,4.16,4.16,0,0,1-1.3,1,4.39,4.39,0,0,1-2,.43,4.57,4.57,0,0,1-2-.49,3.54,3.54,0,0,1-1.36-1.49,4.41,4.41,0,0,1-.44-2Zm1.18.06a3.65,3.65,0,0,0,.31,1.48,2.55,2.55,0,0,0,1,1.11,2.67,2.67,0,0,0,2.71,0,3.08,3.08,0,0,0,1.18-.93A4.18,4.18,0,0,0,69,17.35a4.07,4.07,0,0,0,.31-1.66,3.26,3.26,0,0,0-.74-2.23,2.61,2.61,0,0,0-1.92-.8,3.34,3.34,0,0,0-2.53,1.23A4.7,4.7,0,0,0,63,17.17Z"/><path class="cls-2" d="M9.39,53.54H4.75L.8,33H6.05l1.36,9c.43,2.47.62,4.08.74,4.88a24.1,24.1,0,0,1,1.3-2.53l1.36-2.6L15.75,33h5.8L9.39,53.54Z"/><path class="cls-2" d="M24.45,33h5.38L27.36,45.14c-.25,1.48-.44,2.41-.44,2.78a2.15,2.15,0,0,0,.62,1.48,2.29,2.29,0,0,0,1.67.68,3.53,3.53,0,0,0,1.36-.31A4.43,4.43,0,0,0,32,48.91a6.36,6.36,0,0,0,1.29-1.3A6.1,6.1,0,0,0,34.4,45.7a16.88,16.88,0,0,0,.74-2.91l2-9.81h5.38L38.35,53.54h-5l.55-2.78A10,10,0,0,1,26.74,54a5.21,5.21,0,0,1-3.83-1.42,5.4,5.4,0,0,1-1.36-3.89,25.33,25.33,0,0,1,.62-4.26L24.45,33Z"/><path class="cls-2" d="M47.61,33h5.07l-.5,2.65a14.1,14.1,0,0,1,3.52-2.41,8.58,8.58,0,0,1,3.46-.74A5.1,5.1,0,0,1,63.05,34a5.23,5.23,0,0,1,1.42,3.83,31.78,31.78,0,0,1-.62,4.14L61.51,53.54H56.13l2.35-11.67A26.06,26.06,0,0,0,59,38.78a2.3,2.3,0,0,0-.62-1.73,2.51,2.51,0,0,0-1.67-.62,4.84,4.84,0,0,0-2.65,1,7.48,7.48,0,0,0-2.23,2.72,22.26,22.26,0,0,0-1.36,4.88l-1.66,8.46H43.47L47.61,33Z"/><path class="cls-2" d="M85.71,45H72.25v.49a4.66,4.66,0,0,0,1.11,3.27,3.5,3.5,0,0,0,2.78,1.3c1.79,0,3.15-1,4.14-2.9L85.1,48a10.22,10.22,0,0,1-3.77,4.51A9.47,9.47,0,0,1,76.08,54a8.57,8.57,0,0,1-6.48-2.59,9.74,9.74,0,0,1-2.47-7,13.18,13.18,0,0,1,2.22-7.53,10,10,0,0,1,8.77-4.45,7.46,7.46,0,0,1,5.8,2.35,9.27,9.27,0,0,1,2.16,6.54A16.4,16.4,0,0,1,85.71,45Zm-4.51-3.4V41a4.94,4.94,0,0,0-1-3.39,3.48,3.48,0,0,0-2.66-1.18,4.09,4.09,0,0,0-3,1.3,7.14,7.14,0,0,0-1.79,3.89Z"/><path class="cls-2" d="M86.64,47.8l5.19-.87a4.33,4.33,0,0,0,4.5,3.15,4.56,4.56,0,0,0,2.91-.86,1.66,1.66,0,0,0,.8-1.42,1.4,1.4,0,0,0-.37-1,6.09,6.09,0,0,0-2.22-1.05c-3.28-1.11-5.25-2-6.06-2.66a5,5,0,0,1-1.79-4A5.77,5.77,0,0,1,91.33,35c1.67-1.67,4.08-2.47,7.29-2.47a9.74,9.74,0,0,1,5.8,1.48,6.4,6.4,0,0,1,2.47,3.89l-4.94.93a3.28,3.28,0,0,0-1.29-1.67,4.86,4.86,0,0,0-2.84-.8,3.71,3.71,0,0,0-2.47.62,1.67,1.67,0,0,0-.68,1.29,1.44,1.44,0,0,0,.74,1.3,21.14,21.14,0,0,0,3,1.11,14.63,14.63,0,0,1,5.25,2.29,5.07,5.07,0,0,1,1.85,3.89,6.47,6.47,0,0,1-2.34,5.06A9.74,9.74,0,0,1,96.46,54a12.09,12.09,0,0,1-6.67-1.6,8.22,8.22,0,0,1-3.15-4.63Z"/><path class="cls-2" d="M112.2,33h5.07l-.43,2.1a11.15,11.15,0,0,1,3.08-2,7.05,7.05,0,0,1,3-.62,6.14,6.14,0,0,1,5,2.23c1.24,1.48,1.92,3.7,1.92,6.66a14,14,0,0,1-3.28,9.39A8.49,8.49,0,0,1,120,54a6.56,6.56,0,0,1-6-3.33l-2.1,10.68h-5.38L112.2,33Zm3.22,11.79a5.85,5.85,0,0,0,1.17,3.77,3.35,3.35,0,0,0,2.65,1.29,3.88,3.88,0,0,0,2.54-1,7.67,7.67,0,0,0,2-3.34,12.46,12.46,0,0,0,.81-4.26,5.28,5.28,0,0,0-1.05-3.58,3.46,3.46,0,0,0-2.72-1.24,4.3,4.3,0,0,0-2.78,1.18,7.2,7.2,0,0,0-1.91,3.33,12,12,0,0,0-.74,3.83Z"/></svg>